<svg xmlns="http://www.w3.org/2000/svg" xmlns:xlink="http://www.w3.org/1999/xlink" width="500" zoomAndPan="magnify" viewBox="0 0 375 374.999991" height="500" preserveAspectRatio="xMidYMid meet" version="1.0"><defs><clipPath id="c150ae3bda"><path d="M 15.066406 151 L 188 151 L 188 303.289062 L 15.066406 303.289062 Z M 15.066406 151 " clip-rule="nonzero"/></clipPath><clipPath id="0690829f9e"><path d="M 187 71.539062 L 360 71.539062 L 360 224 L 187 224 Z M 187 71.539062 " clip-rule="nonzero"/></clipPath><clipPath id="92ea76dd3c"><path d="M 297.097656 193.53125 L 344.417969 193.53125 L 344.417969 210.4375 L 297.097656 210.4375 Z M 297.097656 193.53125 " clip-rule="nonzero"/></clipPath></defs><g clip-path="url(#c150ae3bda)"><path fill="#000000" d="M 131.1875 259.023438 L 131.1875 280.015625 L 36.125 235.851562 L 36.125 218.820312 L 131.1875 174.652344 L 131.1875 195.648438 L 59.296875 227.136719 L 59.296875 227.53125 Z M 187.644531 151.328125 L 28.671875 151.328125 C 21.164062 151.328125 15.082031 157.414062 15.082031 164.921875 L 15.082031 289.75 C 15.082031 297.253906 21.164062 303.339844 28.671875 303.339844 L 143.511719 303.339844 L 187.644531 151.328125 " fill-opacity="1" fill-rule="nonzero"/></g><g clip-path="url(#0690829f9e)"><path fill="#000000" d="M 338.902344 156.730469 L 243.84375 200.296875 L 243.84375 179.300781 L 317.316406 147.816406 L 317.316406 147.421875 L 243.84375 115.929688 L 243.84375 94.9375 L 338.902344 138.507812 Z M 231.777344 71.613281 L 187.644531 223.625 L 346.359375 223.625 C 353.867188 223.625 359.949219 217.539062 359.949219 210.03125 L 359.949219 85.199219 C 359.949219 77.695312 353.867188 71.613281 346.359375 71.613281 L 231.777344 71.613281 " fill-opacity="1" fill-rule="nonzero"/></g><g clip-path="url(#92ea76dd3c)"><path fill="#000000" d="M 297.097656 193.53125 L 344.4375 193.53125 L 344.4375 210.4375 L 297.097656 210.4375 Z M 297.097656 193.53125 " fill-opacity="1" fill-rule="nonzero"/></g></svg>